<svg width="359" height="282" viewBox="0 0 359 282" fill="none" xmlns="http://www.w3.org/2000/svg">
<path d="M14.9593 166.918C19.0369 165.826 23.223 168.243 24.3156 172.32L32.7336 203.737C33.8262 207.814 31.4093 212 27.3317 213.093C23.2541 214.186 19.068 211.769 17.9754 207.691L9.55739 176.275C8.46479 172.197 10.8816 168.011 14.9593 166.918Z" fill="#3A3E3F"/>
<path d="M44.2328 183.82C45.3254 187.897 42.9085 192.083 38.8309 193.176L7.41458 201.594C3.33695 202.686 -0.849175 200.27 -1.94177 196.192C-3.03437 192.114 -0.617512 187.928 3.46012 186.836L34.8764 178.418C38.954 177.325 43.1402 179.742 44.2328 183.82Z" fill="#3A3E3F"/>
<path d="M124.614 184.688C126.532 184.174 128.5 185.311 129.014 187.228L132.973 202.002C133.486 203.919 132.35 205.888 130.432 206.402C128.515 206.916 126.546 205.779 126.033 203.861L122.074 189.088C121.56 187.17 122.697 185.202 124.614 184.688Z" fill="#3A3E3F"/>
<path d="M138.38 192.636C138.894 194.553 137.758 196.522 135.84 197.036L121.066 200.994C119.149 201.508 117.18 200.371 116.666 198.454C116.153 196.536 117.289 194.568 119.207 194.054L133.98 190.095C135.898 189.582 137.866 190.718 138.38 192.636Z" fill="#3A3E3F"/>
<path d="M101.968 81.3272C103.55 80.9032 105.174 81.841 105.598 83.4234L108.865 95.6148C109.289 97.1972 108.351 98.8216 106.769 99.2456C105.186 99.6696 103.562 98.7317 103.138 97.1494L99.8713 84.958C99.4473 83.3756 100.385 81.7511 101.968 81.3272Z" fill="#3A3E3F"/>
<path d="M113.327 87.8858C113.751 89.4681 112.813 91.0926 111.231 91.5166L99.0397 94.7833C97.4574 95.2073 95.8329 94.2694 95.4089 92.687C94.9849 91.1047 95.9228 89.4802 97.5052 89.0562L109.697 85.7895C111.279 85.3655 112.903 86.3034 113.327 87.8858Z" fill="#3A3E3F"/>
<path d="M51.7063 129.432C54.3569 130.962 57.7462 130.054 59.2765 127.404C60.8068 124.753 59.8987 121.364 57.2481 119.833C54.5975 118.303 51.2082 119.211 49.6779 121.862C48.1476 124.512 49.0558 127.902 51.7063 129.432Z" fill="#F3722B"/>
<path d="M64.4911 126.006C67.1417 127.537 70.531 126.629 72.0613 123.978C73.5916 121.327 72.6835 117.938 70.0329 116.408C67.3823 114.878 63.993 115.786 62.4627 118.436C60.9324 121.087 61.8405 124.476 64.4911 126.006Z" fill="#F3722B"/>
<path d="M306.569 192.268C316.725 189.547 322.753 179.107 320.031 168.95C317.31 158.793 306.87 152.765 296.713 155.487C286.556 158.208 280.528 168.648 283.25 178.805C285.972 188.962 296.412 194.99 306.569 192.268Z" fill="#F3722B"/>
<path d="M329.306 152.887C339.463 150.165 345.49 139.725 342.769 129.568C340.047 119.411 329.607 113.384 319.45 116.105C309.293 118.827 303.266 129.267 305.987 139.424C308.709 149.581 319.149 155.608 329.306 152.887Z" fill="#F3722B"/>
</svg>
