<svg width="390" height="214" viewBox="0 0 390 214" fill="none" xmlns="http://www.w3.org/2000/svg">
<path d="M240.477 148.153C230.77 138.445 215.034 138.445 205.327 148.153C195.62 157.86 195.62 173.596 205.327 183.303L307.695 285.671L342.845 250.52L240.477 148.153Z" fill="#3A3E3F"/>
<path opacity="0.84" d="M242.897 65.0884C233.19 55.3813 217.454 55.3812 207.747 65.0884C198.04 74.7956 198.04 90.5317 207.747 100.239L350.451 242.942L385.601 207.792L242.897 65.0884Z" fill="#7E8283"/>
<path d="M123.623 170.196C128.491 170.196 132.432 174.137 132.432 179.004L132.432 216.506C132.432 221.373 128.491 225.314 123.623 225.314C118.756 225.314 114.815 221.373 114.815 216.506L114.815 179.004C114.815 174.137 118.756 170.196 123.623 170.196Z" fill="#F3722B"/>
<path d="M151.196 197.768C151.196 202.635 147.255 206.576 142.388 206.576H104.887C100.019 206.576 96.0782 202.636 96.0782 197.768C96.0782 192.901 100.019 188.96 104.887 188.96L142.388 188.96C147.255 188.96 151.196 192.901 151.196 197.768Z" fill="#F3722B"/>
<path d="M25.1586 189.615C26.8866 188.618 29.0934 189.209 30.0911 190.937L37.7774 204.25C38.7751 205.978 38.1838 208.185 36.4558 209.183C34.7278 210.18 32.521 209.589 31.5234 207.861L23.837 194.548C22.8394 192.82 23.4307 190.613 25.1586 189.615Z" fill="#3A3E3F"/>
<path d="M40.5908 193.75C41.5885 195.478 40.9972 197.685 39.2692 198.683L25.956 206.369C24.228 207.367 22.0212 206.775 21.0236 205.048C20.0259 203.32 20.6173 201.113 22.3452 200.115L35.6584 192.429C37.3864 191.431 39.5932 192.022 40.5908 193.75Z" fill="#3A3E3F"/>
<path d="M73.7406 61.2595C75.0246 62.5435 77.1063 62.5435 78.3902 61.2595C79.6742 59.9756 79.6742 57.8939 78.3902 56.6099C77.1063 55.326 75.0246 55.326 73.7406 56.61C72.4567 57.8939 72.4567 59.9756 73.7406 61.2595Z" fill="#231F20"/>
<path d="M66.2585 73.3909C64.9784 74.671 62.8964 74.6784 61.6089 73.3909C60.3214 72.1034 60.3215 70.0288 61.6089 68.7413C62.8964 67.4538 64.971 67.4538 66.2585 68.7413C67.546 70.0288 67.546 72.1034 66.2585 73.3909Z" fill="#231F20"/>
<path d="M85.556 73.0747C86.8399 74.3587 88.9216 74.3587 90.2056 73.0747C91.4895 71.7908 91.4895 69.7091 90.2056 68.4251C88.9216 67.1412 86.8399 67.1412 85.556 68.4251C84.272 69.7091 84.272 71.7908 85.556 73.0747Z" fill="#231F20"/>
<path d="M78.0665 85.199C76.7864 86.4791 74.7044 86.4865 73.4169 85.199C72.1294 83.9115 72.1294 81.8369 73.4169 80.5494C74.7044 79.2619 76.779 79.2619 78.0665 80.5494C79.354 81.8369 79.354 83.9115 78.0665 85.199Z" fill="#231F20"/>
<path d="M49.8228 37.3421C51.1067 38.626 53.1884 38.626 54.4724 37.3421C55.7563 36.0581 55.7563 33.9764 54.4724 32.6925C53.1884 31.4085 51.1067 31.4085 49.8228 32.6925C48.5388 33.9764 48.5388 36.0581 49.8228 37.3421Z" fill="#231F20"/>
<path d="M42.3411 49.4734C41.061 50.7535 38.979 50.7609 37.6915 49.4734C36.404 48.186 36.404 46.1113 37.6915 44.8238C38.979 43.5364 41.0536 43.5364 42.3411 44.8238C43.6286 46.1113 43.6286 48.186 42.3411 49.4734Z" fill="#231F20"/>
<path d="M61.6383 49.1573C62.9223 50.4412 65.004 50.4412 66.2879 49.1573C67.5719 47.8733 67.5719 45.7916 66.2879 44.5077C65.004 43.2237 62.9223 43.2237 61.6383 44.5077C60.3544 45.7916 60.3544 47.8733 61.6383 49.1573Z" fill="#231F20"/>
<path d="M54.1565 61.2891C52.8764 62.5692 50.7943 62.5766 49.5069 61.2891C48.2194 60.0016 48.2194 57.927 49.5069 56.6395C50.7943 55.352 52.869 55.352 54.1565 56.6395C55.4439 57.927 55.4439 60.0016 54.1565 61.2891Z" fill="#231F20"/>
</svg>
