<svg width="365" height="282" viewBox="0 0 365 282" fill="none" xmlns="http://www.w3.org/2000/svg">
<path d="M20.2418 166.919C24.3194 165.826 28.5056 168.243 29.5982 172.32L38.0161 203.737C39.1087 207.814 36.6919 212.001 32.6142 213.093C28.5366 214.186 24.3505 211.769 23.2579 207.691L14.8399 176.275C13.7473 172.197 16.1642 168.011 20.2418 166.919Z" fill="#3A3E3F"/>
<path d="M49.5153 183.82C50.6079 187.897 48.191 192.083 44.1134 193.176L12.6971 201.594C8.61948 202.687 4.43336 200.27 3.34076 196.192C2.24816 192.114 4.66502 187.928 8.74265 186.836L40.1589 178.418C44.2366 177.325 48.4227 179.742 49.5153 183.82Z" fill="#3A3E3F"/>
<path d="M129.897 184.688C131.815 184.174 133.783 185.311 134.297 187.228L138.256 202.002C138.769 203.919 137.633 205.888 135.715 206.402C133.798 206.916 131.829 205.779 131.315 203.862L127.357 189.088C126.843 187.17 127.98 185.202 129.897 184.688Z" fill="#3A3E3F"/>
<path d="M143.663 192.636C144.177 194.553 143.04 196.522 141.123 197.036L126.349 200.994C124.432 201.508 122.463 200.372 121.949 198.454C121.435 196.536 122.572 194.568 124.489 194.054L139.263 190.095C141.181 189.582 143.149 190.718 143.663 192.636Z" fill="#3A3E3F"/>
<path d="M107.25 81.3274C108.832 80.9034 110.457 81.8413 110.881 83.4237L114.148 95.6151C114.572 97.1974 113.634 98.8219 112.051 99.2459C110.469 99.6699 108.845 98.732 108.421 97.1496L105.154 84.9582C104.73 83.3759 105.668 81.7514 107.25 81.3274Z" fill="#3A3E3F"/>
<path d="M118.61 87.886C119.034 89.4684 118.096 91.0928 116.514 91.5168L104.322 94.7835C102.74 95.2075 101.115 94.2696 100.692 92.6873C100.268 91.1049 101.205 89.4804 102.788 89.0564L114.979 85.7898C116.562 85.3658 118.186 86.3037 118.61 87.886Z" fill="#3A3E3F"/>
<path d="M56.989 129.432C59.6396 130.962 63.0289 130.054 64.5592 127.404C66.0895 124.753 65.1813 121.364 62.5307 119.833C59.8802 118.303 56.4909 119.211 54.9606 121.862C53.4303 124.512 54.3384 127.902 56.989 129.432Z" fill="#F3722B"/>
<path d="M69.7741 126.006C72.4247 127.537 75.814 126.629 77.3443 123.978C78.8746 121.327 77.9665 117.938 75.3159 116.408C72.6653 114.878 69.276 115.786 67.7457 118.436C66.2154 121.087 67.1236 124.476 69.7741 126.006Z" fill="#F3722B"/>
<path d="M311.851 192.269C322.008 189.547 328.035 179.107 325.314 168.95C322.592 158.793 312.152 152.765 301.995 155.487C291.838 158.209 285.811 168.649 288.532 178.806C291.254 188.962 301.694 194.99 311.851 192.269Z" fill="#F3722B"/>
<path d="M334.588 152.887C344.745 150.166 350.773 139.726 348.051 129.569C345.33 119.412 334.889 113.384 324.733 116.106C314.576 118.827 308.548 129.267 311.27 139.424C313.991 149.581 324.431 155.609 334.588 152.887Z" fill="#F3722B"/>
</svg>
