<svg width="390" height="827" viewBox="0 0 390 827" fill="none" xmlns="http://www.w3.org/2000/svg">
<path d="M14.9593 166.918C19.0369 165.826 23.223 168.243 24.3156 172.32L32.7336 203.737C33.8262 207.814 31.4093 212 27.3317 213.093C23.2541 214.186 19.068 211.769 17.9754 207.691L9.55739 176.275C8.46479 172.197 10.8816 168.011 14.9593 166.918Z" fill="#3A3E3F"/>
<path d="M44.2328 183.82C45.3254 187.897 42.9085 192.083 38.8309 193.176L7.41458 201.594C3.33695 202.686 -0.849175 200.27 -1.94177 196.192C-3.03437 192.114 -0.617512 187.928 3.46012 186.836L34.8764 178.418C38.954 177.325 43.1402 179.742 44.2328 183.82Z" fill="#3A3E3F"/>
<path d="M124.614 184.688C126.532 184.174 128.5 185.311 129.014 187.228L132.973 202.002C133.486 203.919 132.35 205.888 130.432 206.402C128.515 206.916 126.546 205.779 126.033 203.861L122.074 189.088C121.56 187.17 122.697 185.202 124.614 184.688Z" fill="#3A3E3F"/>
<path d="M138.38 192.636C138.894 194.553 137.758 196.522 135.84 197.036L121.066 200.994C119.149 201.508 117.18 200.371 116.666 198.454C116.153 196.536 117.289 194.568 119.207 194.054L133.98 190.095C135.898 189.582 137.866 190.718 138.38 192.636Z" fill="#3A3E3F"/>
<path d="M101.968 81.3272C103.55 80.9032 105.174 81.841 105.598 83.4234L108.865 95.6148C109.289 97.1972 108.351 98.8216 106.769 99.2456C105.186 99.6696 103.562 98.7317 103.138 97.1494L99.8713 84.958C99.4473 83.3756 100.385 81.7511 101.968 81.3272Z" fill="#3A3E3F"/>
<path d="M113.327 87.8858C113.751 89.4681 112.813 91.0926 111.231 91.5166L99.0397 94.7833C97.4574 95.2073 95.8329 94.2694 95.4089 92.687C94.9849 91.1047 95.9228 89.4802 97.5052 89.0562L109.697 85.7895C111.279 85.3655 112.903 86.3034 113.327 87.8858Z" fill="#3A3E3F"/>
<path d="M51.7063 129.432C54.3569 130.962 57.7462 130.054 59.2765 127.404C60.8068 124.753 59.8987 121.364 57.2481 119.833C54.5975 118.303 51.2082 119.211 49.6779 121.862C48.1476 124.512 49.0558 127.902 51.7063 129.432Z" fill="#F3722B"/>
<path d="M64.4911 126.006C67.1417 127.537 70.531 126.629 72.0613 123.978C73.5916 121.327 72.6835 117.938 70.0329 116.408C67.3823 114.878 63.993 115.786 62.4627 118.436C60.9324 121.087 61.8405 124.476 64.4911 126.006Z" fill="#F3722B"/>
<path d="M306.569 192.268C316.725 189.547 322.753 179.107 320.031 168.95C317.31 158.793 306.87 152.765 296.713 155.487C286.556 158.208 280.528 168.648 283.25 178.805C285.972 188.962 296.412 194.99 306.569 192.268Z" fill="#F3722B"/>
<path d="M329.306 152.887C339.463 150.165 345.49 139.725 342.769 129.568C340.047 119.411 329.607 113.384 319.45 116.105C309.293 118.827 303.266 129.267 305.987 139.424C308.709 149.581 319.149 155.608 329.306 152.887Z" fill="#F3722B"/>
<path d="M240.477 761.153C230.77 751.445 215.034 751.445 205.327 761.153C195.62 770.86 195.62 786.596 205.327 796.303L307.695 898.671L342.845 863.52L240.477 761.153Z" fill="#3A3E3F"/>
<path opacity="0.84" d="M242.897 678.088C233.19 668.381 217.454 668.381 207.747 678.088C198.04 687.796 198.04 703.532 207.747 713.239L350.451 855.942L385.601 820.792L242.897 678.088Z" fill="#7E8283"/>
<path d="M123.623 783.196C128.491 783.196 132.432 787.137 132.432 792.004L132.432 829.506C132.432 834.373 128.491 838.314 123.623 838.314C118.756 838.314 114.815 834.373 114.815 829.506L114.815 792.004C114.815 787.137 118.756 783.196 123.623 783.196Z" fill="#F3722B"/>
<path d="M151.196 810.768C151.196 815.635 147.255 819.576 142.388 819.576H104.887C100.019 819.576 96.0782 815.636 96.0782 810.768C96.0782 805.901 100.019 801.96 104.887 801.96L142.388 801.96C147.255 801.96 151.196 805.901 151.196 810.768Z" fill="#F3722B"/>
<path d="M25.1586 802.615C26.8866 801.618 29.0934 802.209 30.0911 803.937L37.7774 817.25C38.7751 818.978 38.1838 821.185 36.4558 822.183C34.7278 823.18 32.521 822.589 31.5234 820.861L23.837 807.548C22.8394 805.82 23.4307 803.613 25.1586 802.615Z" fill="#3A3E3F"/>
<path d="M40.5908 806.75C41.5885 808.478 40.9972 810.685 39.2692 811.683L25.956 819.369C24.228 820.367 22.0212 819.775 21.0236 818.048C20.0259 816.32 20.6173 814.113 22.3452 813.115L35.6584 805.429C37.3864 804.431 39.5932 805.022 40.5908 806.75Z" fill="#3A3E3F"/>
<path d="M73.7406 674.26C75.0246 675.543 77.1063 675.543 78.3902 674.26C79.6742 672.976 79.6742 670.894 78.3902 669.61C77.1063 668.326 75.0246 668.326 73.7406 669.61C72.4567 670.894 72.4567 672.976 73.7406 674.26Z" fill="#231F20"/>
<path d="M66.2585 686.391C64.9784 687.671 62.8964 687.678 61.6089 686.391C60.3214 685.103 60.3215 683.029 61.6089 681.741C62.8964 680.454 64.971 680.454 66.2585 681.741C67.546 683.029 67.546 685.103 66.2585 686.391Z" fill="#231F20"/>
<path d="M85.556 686.075C86.8399 687.359 88.9216 687.359 90.2056 686.075C91.4895 684.791 91.4895 682.709 90.2056 681.425C88.9216 680.141 86.8399 680.141 85.556 681.425C84.272 682.709 84.272 684.791 85.556 686.075Z" fill="#231F20"/>
<path d="M78.0665 698.199C76.7864 699.479 74.7044 699.486 73.4169 698.199C72.1294 696.912 72.1294 694.837 73.4169 693.549C74.7044 692.262 76.779 692.262 78.0665 693.549C79.354 694.837 79.354 696.912 78.0665 698.199Z" fill="#231F20"/>
<path d="M49.8228 650.342C51.1067 651.626 53.1884 651.626 54.4724 650.342C55.7563 649.058 55.7563 646.976 54.4724 645.692C53.1884 644.409 51.1067 644.409 49.8228 645.692C48.5388 646.976 48.5388 649.058 49.8228 650.342Z" fill="#231F20"/>
<path d="M42.3411 662.473C41.061 663.754 38.979 663.761 37.6915 662.473C36.404 661.186 36.404 659.111 37.6915 657.824C38.979 656.536 41.0536 656.536 42.3411 657.824C43.6286 659.111 43.6286 661.186 42.3411 662.473Z" fill="#231F20"/>
<path d="M61.6383 662.157C62.9223 663.441 65.004 663.441 66.2879 662.157C67.5719 660.873 67.5719 658.792 66.2879 657.508C65.004 656.224 62.9223 656.224 61.6383 657.508C60.3544 658.792 60.3544 660.873 61.6383 662.157Z" fill="#231F20"/>
<path d="M54.1565 674.289C52.8764 675.569 50.7943 675.577 49.5069 674.289C48.2194 673.002 48.2194 670.927 49.5069 669.639C50.7943 668.352 52.869 668.352 54.1565 669.64C55.4439 670.927 55.4439 673.002 54.1565 674.289Z" fill="#231F20"/>
</svg>
