<svg width="34" height="34" viewBox="0 0 34 34" fill="none" xmlns="http://www.w3.org/2000/svg">
<path d="M30.4568 3.55303C27.2478 0.357406 22.6368 0 17 0C11.3632 0 6.73781 0.361832 3.53102 3.5652C0.324221 6.76857 0 11.3794 0 17.0171C0 22.6549 0.325327 27.2679 3.53212 30.4713C6.73892 33.6747 11.3577 34 17 34C22.6423 34 27.2578 33.6769 30.4668 30.4724C33.6758 27.2679 34 22.6549 34 17.0183C34 11.3817 33.6758 6.76194 30.4568 3.55303ZM15.7496 23.3022C15.7487 23.3578 15.7259 23.4109 15.6861 23.4499C15.6464 23.4888 15.5928 23.5105 15.5371 23.5102H12.638C12.5818 23.5111 12.5276 23.4897 12.4871 23.4507C12.4467 23.4117 12.4233 23.3583 12.4222 23.3022V15.7247C12.4226 15.6968 12.4285 15.6693 12.4396 15.6437C12.4507 15.6181 12.4667 15.5949 12.4867 15.5755C12.5068 15.5561 12.5305 15.5408 12.5564 15.5305C12.5823 15.5202 12.6101 15.5152 12.638 15.5156H15.5371C15.593 15.5153 15.6467 15.5371 15.6865 15.5763C15.7263 15.6155 15.749 15.6689 15.7496 15.7247V23.3022ZM21.4273 23.3022C21.4264 23.358 21.4035 23.4113 21.3635 23.4503C21.3235 23.4892 21.2696 23.5108 21.2138 23.5102H18.4518C18.3958 23.5108 18.3419 23.4893 18.3017 23.4503C18.2615 23.4114 18.2383 23.3581 18.2371 23.3022V16.7593C18.2371 15.6174 18.1696 14.4434 17.5798 13.8536C17.073 13.3457 16.1269 13.2284 15.1454 13.2041H10.1405C10.0845 13.2038 10.0307 13.2256 9.99069 13.2647C9.9507 13.3039 9.92778 13.3573 9.9269 13.4132V23.3022C9.92545 23.3582 9.90201 23.4115 9.86164 23.4504C9.82126 23.4893 9.7672 23.5108 9.71112 23.5102H6.94474C6.88887 23.5108 6.83504 23.4892 6.79502 23.4503C6.755 23.4113 6.73205 23.358 6.73117 23.3022V10.7022C6.73146 10.6745 6.73721 10.6471 6.7481 10.6215C6.75899 10.596 6.7748 10.5729 6.79464 10.5535C6.81447 10.534 6.83793 10.5187 6.86369 10.5084C6.88944 10.498 6.91698 10.4928 6.94474 10.4931H14.9119C16.9934 10.4931 19.1711 10.5883 20.2444 11.6627C21.3178 12.7371 21.4196 14.9159 21.4196 17.0006L21.4273 23.3022ZM27.1128 23.3022C27.1116 23.3581 27.0884 23.4114 27.0482 23.4503C27.008 23.4893 26.9541 23.5108 26.8981 23.5102H24.1362C24.0803 23.5108 24.0265 23.4892 23.9865 23.4503C23.9464 23.4113 23.9235 23.358 23.9226 23.3022V10.7022C23.9229 10.6745 23.9286 10.6471 23.9395 10.6215C23.9504 10.596 23.9662 10.5729 23.9861 10.5535C24.0059 10.534 24.0294 10.5187 24.0551 10.5084C24.0809 10.498 24.1084 10.4928 24.1362 10.4931H26.897C26.9531 10.4928 27.007 10.5146 27.0472 10.5537C27.0874 10.5928 27.1105 10.6462 27.1117 10.7022L27.1128 23.3022Z" fill="white"/>
</svg>
