<svg width="48" height="57" viewBox="0 0 48 57" fill="none" xmlns="http://www.w3.org/2000/svg">
<path d="M24.2795 0L6.94756 17.0846C-2.31585 26.2158 -2.31585 41.0204 6.94756 50.1516C16.211 59.2828 31.2299 59.2828 40.4933 50.1516L41.0524 49.6005C50.3159 40.4693 50.3159 25.6647 41.0524 16.5335L24.2795 0Z" fill="#898989"/>
<path d="M26.9784 19.4127C25.0082 18.9235 22.9351 18.8536 20.9178 19.2871C20.7619 19.3206 20.6628 19.4736 20.6965 19.6288C20.7301 19.784 20.8838 19.8827 21.0397 19.8492C22.9716 19.434 24.9616 19.5024 26.8546 19.9748C31.3814 21.1043 35.1494 24.4927 36.5845 28.9189C37.1395 30.6306 37.3753 32.4533 37.4225 34.3635C37.4264 34.5223 37.5589 34.6478 37.7183 34.6439C37.8778 34.64 38.0038 34.5081 37.9999 34.3494C37.9521 32.413 37.7135 30.5434 37.1448 28.7752C35.6544 24.1413 31.7162 20.5893 26.9784 19.4127Z" fill="white"/>
<path d="M19.4523 20.2826C19.606 20.2404 19.6963 20.082 19.6539 19.929C19.6114 19.7759 19.4524 19.6861 19.2987 19.7283C17.189 20.3077 14.2213 22.3098 12.3873 24.9844C12.3866 24.9854 12.3859 24.9865 12.3852 24.9875C10.7747 27.4037 9.76523 30.4399 10.0471 33.3862C10.0473 33.389 10.0477 33.3918 10.048 33.3946C10.1156 33.9326 10.229 34.4696 10.3425 35.0072C10.5816 36.1395 10.8213 37.2746 10.6345 38.4278C10.6091 38.5845 10.7161 38.7321 10.8736 38.7574C11.031 38.7827 11.1793 38.6761 11.2047 38.5194C11.4 37.314 11.1575 36.1382 10.9149 34.9622C10.8027 34.4183 10.6905 33.8744 10.6216 33.3275C10.3566 30.5435 11.3114 27.6391 12.8654 25.307C14.6296 22.7351 17.4866 20.8225 19.4523 20.2826Z" fill="white"/>
<path d="M23.2419 20.9249C26.8676 20.7045 30.4925 22.1776 32.927 24.9999C33.0309 25.1203 33.017 25.3018 32.896 25.4053C32.775 25.5087 32.5927 25.4949 32.4888 25.3745C30.1737 22.6906 26.7243 21.2888 23.2753 21.499C23.2741 21.4991 23.2729 21.4991 23.2716 21.4992C18.91 21.7093 14.8254 24.655 13.323 28.7826C13.2686 28.9319 13.103 29.0091 12.9531 28.955C12.8031 28.9009 12.7256 28.736 12.7799 28.5867C14.3627 24.2384 18.6518 21.1468 23.2419 20.9249Z" fill="white"/>
<path d="M33.8067 26.2559C33.7178 26.1241 33.5384 26.089 33.406 26.1775C33.2736 26.266 33.2384 26.4446 33.3273 26.5764C34.6769 28.5771 35.2349 30.7541 35.4555 33.3376C35.469 33.4958 35.6088 33.6132 35.7677 33.5997C35.9266 33.5863 36.0445 33.4471 36.031 33.2889C35.8055 30.6489 35.2301 28.3658 33.8067 26.2559Z" fill="white"/>
<path d="M35.8379 34.5095C35.9971 34.4996 36.1342 34.6201 36.1441 34.7786C36.253 36.5122 36.254 38.4736 36.0613 39.9231C36.0404 40.0805 35.8953 40.1913 35.7372 40.1704C35.5791 40.1496 35.4678 40.0051 35.4888 39.8477C35.6744 38.4506 35.6754 36.5308 35.5677 34.8144C35.5577 34.6559 35.6787 34.5194 35.8379 34.5095Z" fill="white"/>
<path d="M12.8869 30.1752C12.9243 30.0208 12.829 29.8655 12.6739 29.8282C12.5189 29.791 12.3629 29.8859 12.3254 30.0402C12.1135 30.9142 12.0034 31.812 11.9991 32.7107C11.9946 33.637 12.1681 34.5411 12.3416 35.4456C12.4836 36.1855 12.6256 36.9256 12.6702 37.6783C12.7289 38.667 12.52 39.6571 12.1591 40.5995C12.1022 40.7478 12.177 40.914 12.326 40.9706C12.475 41.0271 12.6419 40.9527 12.6987 40.8044C13.0803 39.8083 13.3116 38.7353 13.2468 37.6444C13.2024 36.8968 13.0604 36.161 12.9185 35.4255C12.7453 34.528 12.5722 33.6309 12.5766 32.7135C12.5808 31.8596 12.6853 31.0061 12.8869 30.1752Z" fill="white"/>
<path d="M20.4645 23.7863C20.5239 23.9336 20.4521 24.101 20.3041 24.1602C17.3102 25.3572 15.062 28.0583 14.6033 31.2435C14.4117 32.5742 14.6187 33.8924 14.8257 35.2102C14.9422 35.9524 15.0588 36.6944 15.1041 37.4385C15.2023 39.052 15.0177 40.8242 13.963 42.4367C13.876 42.5698 13.6971 42.6074 13.5634 42.5207C13.4298 42.4341 13.392 42.256 13.479 42.1229C14.44 40.6538 14.6219 39.0219 14.5276 37.4733C14.4816 36.7183 14.3658 35.9677 14.2501 35.2175C14.0424 33.8716 13.835 32.5273 14.0316 31.1619C14.5213 27.7609 16.9157 24.8952 20.0889 23.6266C20.2369 23.5674 20.405 23.6389 20.4645 23.7863Z" fill="white"/>
<path d="M30.6025 25.4231C28.2406 23.2207 24.8174 22.4521 21.7062 23.1314C21.5504 23.1655 21.4518 23.3188 21.486 23.4739C21.5201 23.629 21.6741 23.7271 21.8299 23.6931C24.776 23.0498 27.9994 23.7836 30.2077 25.8428C32.069 27.5784 33.1498 30.1038 33.4328 32.8591C33.449 33.017 33.5908 33.132 33.7494 33.1158C33.9081 33.0997 34.0236 32.9586 34.0074 32.8006C33.7136 29.9396 32.5871 27.2736 30.6025 25.4231Z" fill="white"/>
<path d="M33.9469 34.1698C34.1056 34.1536 34.2474 34.2685 34.2637 34.4264C34.538 37.0849 34.4198 39.9564 34.0057 42.7342C33.9823 42.8913 33.8354 42.9997 33.6777 42.9764C33.5199 42.9531 33.411 42.8069 33.4344 42.6498C33.8427 39.9106 33.9577 37.0879 33.6892 34.4852C33.6729 34.3272 33.7883 34.186 33.9469 34.1698Z" fill="white"/>
<path d="M23.8788 24.8429C19.4535 24.8429 15.8579 28.3578 15.8579 32.7033C15.8579 33.1675 15.8993 33.6223 15.9782 34.0646C16.0061 34.2209 16.156 34.3252 16.313 34.2974C16.47 34.2697 16.5747 34.1204 16.5469 33.9641C16.4738 33.5546 16.4355 33.1334 16.4355 32.7033C16.4355 28.6842 19.7635 25.418 23.8788 25.418C25.7385 25.418 27.4376 26.0853 28.7418 27.1879C28.8633 27.2907 29.0456 27.2759 29.1488 27.1548C29.252 27.0338 29.2372 26.8524 29.1156 26.7496C27.7103 25.5614 25.8796 24.8429 23.8788 24.8429Z" fill="white"/>
<path d="M29.7627 27.8215C29.8778 27.7116 30.0606 27.7155 30.171 27.8301C31.4454 29.1532 31.8534 31.2327 32.1233 32.9779C32.4274 34.9436 32.4738 36.8614 32.4738 37.7506C32.4738 37.9094 32.3445 38.0381 32.185 38.0381C32.0255 38.0381 31.8962 37.9094 31.8962 37.7506C31.8962 36.8758 31.8503 34.9905 31.5525 33.0654C31.3019 31.4452 30.9406 29.4599 29.7541 28.228C29.6437 28.1134 29.6475 27.9314 29.7627 27.8215Z" fill="white"/>
<path d="M32.4005 39.3971C32.4132 39.2388 32.2946 39.1003 32.1356 39.0876C31.9766 39.075 31.8374 39.1931 31.8247 39.3514C31.6829 41.1223 31.4976 42.8914 31.1216 44.5255C31.086 44.6802 31.1831 44.8345 31.3386 44.8699C31.494 44.9054 31.6489 44.8086 31.6846 44.6539C32.0705 42.9767 32.2583 41.1728 32.4005 39.3971Z" fill="white"/>
<path d="M16.443 35.1228C16.5995 35.0921 16.7513 35.1935 16.7822 35.3493C17.3928 38.4363 16.9709 41.2405 15.354 43.6969C15.2665 43.8297 15.0875 43.8669 14.9541 43.7798C14.8207 43.6928 14.7835 43.5146 14.8709 43.3818C16.3923 41.0705 16.8017 38.4243 16.2155 35.4604C16.1847 35.3046 16.2865 35.1534 16.443 35.1228Z" fill="white"/>
<path d="M23.8788 26.7136C21.0062 26.7136 18.1881 28.9273 17.9005 31.7095C17.7746 32.9276 17.9515 34.1274 18.1284 35.3277C18.283 36.3757 18.4375 37.4242 18.3906 38.4854C18.2832 40.9143 17.5674 42.9192 16.3374 44.5706C16.2424 44.6981 16.2692 44.8782 16.3973 44.9728C16.5255 45.0673 16.7063 45.0406 16.8013 44.9131C18.1059 43.1616 18.8556 41.0439 18.9676 38.5107C19.0143 37.4542 18.8593 36.4091 18.7043 35.3647C18.5272 34.1704 18.3501 32.9769 18.475 31.7684C18.7277 29.3243 21.2547 27.2886 23.8788 27.2886C25.1027 27.2886 28.2694 27.9484 29.2767 31.2152C29.9079 33.2624 30.0801 36.033 29.9272 38.7246C29.7743 41.4159 29.2988 43.99 28.6593 45.6406C28.6019 45.7887 28.676 45.9552 28.8248 46.0123C28.9736 46.0694 29.1407 45.9957 29.1981 45.8475C29.8672 44.1206 30.3491 41.4814 30.5039 38.7571C30.6586 36.0332 30.4885 33.1859 29.8288 31.0465C28.7107 27.4202 25.2056 26.7136 23.8788 26.7136Z" fill="white"/>
<path d="M19.4346 43.6974C19.5682 43.7841 19.6059 43.9623 19.5187 44.0953C19.3397 44.3686 19.1821 44.6546 19.0246 44.9406C18.867 45.2266 18.7095 45.5127 18.5304 45.7861C18.4432 45.919 18.2643 45.9565 18.1307 45.8698C17.9971 45.7831 17.9595 45.6049 18.0466 45.4719C18.2257 45.1986 18.3832 44.9126 18.5408 44.6266C18.6983 44.3406 18.8559 44.0545 19.035 43.7811C19.1221 43.6481 19.301 43.6106 19.4346 43.6974Z" fill="white"/>
<path d="M21.9074 29.698C22.04 29.6097 22.0755 29.4312 21.9869 29.2992C21.8982 29.1672 21.7188 29.1318 21.5863 29.22C20.4427 29.9815 19.7411 31.0286 19.7411 32.5626C19.7411 33.476 19.9037 34.2226 20.0704 34.9884C20.3199 36.1343 20.4891 37.2777 20.4586 38.4547C20.4217 39.884 20.1408 41.1901 19.6009 42.4342C19.5376 42.58 19.605 42.7492 19.7514 42.8122C19.8978 42.8752 20.0678 42.808 20.1311 42.6623C20.702 41.3468 20.9973 39.9679 21.036 38.4695C21.0676 37.2465 20.8937 36.0578 20.635 34.8668C20.4679 34.0977 20.3187 33.411 20.3187 32.5626C20.3187 31.2483 20.8995 30.3691 21.9074 29.698Z" fill="white"/>
<path d="M23.0345 28.6878C24.2329 28.4446 25.5224 28.7452 26.4716 29.51C28.167 30.8762 28.3925 33.3676 28.5752 35.3865L28.5845 35.4894C28.8207 38.0918 28.5504 40.6196 28.0059 43.1581C27.9726 43.3134 27.8192 43.4124 27.6632 43.3793C27.5072 43.3461 27.4078 43.1934 27.4411 43.0381C27.9774 40.5376 28.2388 38.07 28.0093 35.5411C28.0017 35.4574 27.9942 35.3725 27.9865 35.2865L27.9864 35.2853C27.8241 33.4608 27.6208 31.1758 26.1082 29.9569C25.2967 29.303 24.1838 29.0414 23.1499 29.2512C22.9936 29.283 22.8411 29.1826 22.8092 29.027C22.7774 28.8714 22.8782 28.7195 23.0345 28.6878Z" fill="white"/>
<path d="M27.5978 44.5887C27.6371 44.4349 27.5437 44.2784 27.3892 44.2392C27.2346 44.2 27.0774 44.293 27.0381 44.4469C26.8635 45.1296 26.5945 45.7458 26.2534 46.3132C26.1715 46.4494 26.216 46.6259 26.3529 46.7075C26.4897 46.789 26.667 46.7447 26.749 46.6085C27.1165 45.997 27.4084 45.3294 27.5978 44.5887Z" fill="white"/>
<path d="M26.1856 40.4166C26.344 40.4352 26.4572 40.5782 26.4384 40.7359C26.1657 43.0304 25.55 45.0769 24.562 46.8518C24.4846 46.9907 24.3089 47.0409 24.1694 46.9639C24.0299 46.8869 23.9795 46.712 24.0568 46.5731C25.0023 44.8744 25.5993 42.9023 25.8649 40.6683C25.8836 40.5106 26.0272 40.3979 26.1856 40.4166Z" fill="white"/>
<path d="M26.1261 32.4118C25.9259 31.3468 25.0077 30.5321 23.8931 30.5321C22.3837 30.5321 21.3247 32.0468 21.6979 33.456C22.3293 35.9435 22.433 38.3409 22.0055 40.6499L22.0052 40.6516C21.6343 42.7247 20.9219 44.5897 19.9503 46.1701C19.867 46.3055 19.9098 46.4825 20.0458 46.5654C20.1818 46.6483 20.3596 46.6057 20.4429 46.4703C21.4543 44.8253 22.1909 42.8923 22.5737 40.7533C23.0175 38.3552 22.9075 35.8737 22.2575 33.3136L22.2567 33.3106C21.9768 32.2565 22.757 31.1071 23.8931 31.1071C24.7129 31.1071 25.4052 31.7076 25.558 32.5156C25.9784 34.943 26.1973 37.194 26.0414 39.132C26.0287 39.2903 26.1472 39.4289 26.3062 39.4415C26.4652 39.4542 26.6044 39.3362 26.6171 39.1779C26.7787 37.1691 26.5506 34.8627 26.1268 32.4158C26.1266 32.4145 26.1263 32.4132 26.1261 32.4118Z" fill="white"/>
<path d="M23.0314 44.8638C23.1732 44.9363 23.2291 45.1096 23.1562 45.2509L22.391 46.7334C22.3181 46.8746 22.144 46.9303 22.0022 46.8577C21.8603 46.7851 21.8044 46.6118 21.8773 46.4706L22.6425 44.9881C22.7154 44.8468 22.8895 44.7912 23.0314 44.8638Z" fill="white"/>
<path d="M24.1079 32.689C24.0714 32.5345 23.916 32.4386 23.7607 32.4749C23.6054 32.5112 23.5091 32.666 23.5456 32.8205C24.5195 36.9476 24.3857 40.5716 23.1995 43.6588C23.1425 43.8071 23.2171 43.9733 23.366 44.03C23.515 44.0868 23.682 44.0125 23.7389 43.8642C24.9758 40.6453 25.1015 36.8999 24.1079 32.689Z" fill="white"/>
<path d="M26.9784 19.4127C25.0082 18.9235 22.9351 18.8536 20.9178 19.2871C20.7619 19.3206 20.6628 19.4736 20.6965 19.6288C20.7301 19.784 20.8838 19.8827 21.0397 19.8492C22.9716 19.434 24.9616 19.5024 26.8546 19.9748C31.3814 21.1043 35.1494 24.4927 36.5845 28.9189C37.1395 30.6306 37.3753 32.4533 37.4225 34.3635C37.4264 34.5223 37.5589 34.6478 37.7183 34.6439C37.8778 34.64 38.0038 34.5081 37.9999 34.3494C37.9521 32.413 37.7135 30.5434 37.1448 28.7752C35.6544 24.1413 31.7162 20.5893 26.9784 19.4127Z" stroke="white" stroke-width="0.4375" stroke-miterlimit="10" stroke-linecap="round" stroke-linejoin="round"/>
<path d="M19.4523 20.2826C19.606 20.2404 19.6963 20.082 19.6539 19.929C19.6114 19.7759 19.4524 19.6861 19.2987 19.7283C17.189 20.3077 14.2213 22.3098 12.3873 24.9844C12.3866 24.9854 12.3859 24.9865 12.3852 24.9875C10.7747 27.4037 9.76523 30.4399 10.0471 33.3862C10.0473 33.389 10.0477 33.3918 10.048 33.3946C10.1156 33.9326 10.229 34.4696 10.3425 35.0072C10.5816 36.1395 10.8213 37.2746 10.6345 38.4278C10.6091 38.5845 10.7161 38.7321 10.8736 38.7574C11.031 38.7827 11.1793 38.6761 11.2047 38.5194C11.4 37.314 11.1575 36.1382 10.9149 34.9622C10.8027 34.4183 10.6905 33.8744 10.6216 33.3275C10.3566 30.5435 11.3114 27.6391 12.8654 25.307C14.6296 22.7351 17.4866 20.8225 19.4523 20.2826Z" stroke="white" stroke-width="0.4375" stroke-miterlimit="10" stroke-linecap="round" stroke-linejoin="round"/>
<path d="M23.2419 20.9249C26.8676 20.7045 30.4925 22.1776 32.927 24.9999C33.0309 25.1203 33.017 25.3018 32.896 25.4053C32.775 25.5087 32.5927 25.4949 32.4888 25.3745C30.1737 22.6906 26.7243 21.2888 23.2753 21.499C23.2741 21.4991 23.2729 21.4991 23.2716 21.4992C18.91 21.7093 14.8254 24.655 13.323 28.7826C13.2686 28.9319 13.103 29.0091 12.9531 28.955C12.8031 28.9009 12.7256 28.736 12.7799 28.5867C14.3627 24.2384 18.6518 21.1468 23.2419 20.9249Z" stroke="white" stroke-width="0.4375" stroke-miterlimit="10" stroke-linecap="round" stroke-linejoin="round"/>
<path d="M33.8067 26.2559C33.7178 26.1241 33.5384 26.089 33.406 26.1775C33.2736 26.266 33.2384 26.4446 33.3273 26.5764C34.6769 28.5771 35.2349 30.7541 35.4555 33.3376C35.469 33.4958 35.6088 33.6132 35.7677 33.5997C35.9266 33.5863 36.0445 33.4471 36.031 33.2889C35.8055 30.6489 35.2301 28.3658 33.8067 26.2559Z" stroke="white" stroke-width="0.4375" stroke-miterlimit="10" stroke-linecap="round" stroke-linejoin="round"/>
<path d="M35.8379 34.5095C35.9971 34.4996 36.1342 34.6201 36.1441 34.7786C36.253 36.5122 36.254 38.4736 36.0613 39.9231C36.0404 40.0805 35.8953 40.1913 35.7372 40.1704C35.5791 40.1496 35.4678 40.0051 35.4888 39.8477C35.6744 38.4506 35.6754 36.5308 35.5677 34.8144C35.5577 34.6559 35.6787 34.5194 35.8379 34.5095Z" stroke="white" stroke-width="0.4375" stroke-miterlimit="10" stroke-linecap="round" stroke-linejoin="round"/>
<path d="M12.8869 30.1752C12.9243 30.0208 12.829 29.8655 12.6739 29.8282C12.5189 29.791 12.3629 29.8859 12.3254 30.0402C12.1135 30.9142 12.0034 31.812 11.9991 32.7107C11.9946 33.637 12.1681 34.5411 12.3416 35.4456C12.4836 36.1855 12.6256 36.9256 12.6702 37.6783C12.7289 38.667 12.52 39.6571 12.1591 40.5995C12.1022 40.7478 12.177 40.914 12.326 40.9706C12.475 41.0271 12.6419 40.9527 12.6987 40.8044C13.0803 39.8083 13.3116 38.7353 13.2468 37.6444C13.2024 36.8968 13.0604 36.161 12.9185 35.4255C12.7453 34.528 12.5722 33.6309 12.5766 32.7135C12.5808 31.8596 12.6853 31.0061 12.8869 30.1752Z" stroke="white" stroke-width="0.4375" stroke-miterlimit="10" stroke-linecap="round" stroke-linejoin="round"/>
<path d="M20.4645 23.7863C20.5239 23.9336 20.4521 24.101 20.3041 24.1602C17.3102 25.3572 15.062 28.0583 14.6033 31.2435C14.4117 32.5742 14.6187 33.8924 14.8257 35.2102C14.9422 35.9524 15.0588 36.6944 15.1041 37.4385C15.2023 39.052 15.0177 40.8242 13.963 42.4367C13.876 42.5698 13.6971 42.6074 13.5634 42.5207C13.4298 42.4341 13.392 42.256 13.479 42.1229C14.44 40.6538 14.6219 39.0219 14.5276 37.4733C14.4816 36.7183 14.3658 35.9677 14.2501 35.2175C14.0424 33.8716 13.835 32.5273 14.0316 31.1619C14.5213 27.7609 16.9157 24.8952 20.0889 23.6266C20.2369 23.5674 20.405 23.6389 20.4645 23.7863Z" stroke="white" stroke-width="0.4375" stroke-miterlimit="10" stroke-linecap="round" stroke-linejoin="round"/>
<path d="M30.6025 25.4231C28.2406 23.2207 24.8174 22.4521 21.7062 23.1314C21.5504 23.1655 21.4518 23.3188 21.486 23.4739C21.5201 23.629 21.6741 23.7271 21.8299 23.6931C24.776 23.0498 27.9994 23.7836 30.2077 25.8428C32.069 27.5784 33.1498 30.1038 33.4328 32.8591C33.449 33.017 33.5908 33.132 33.7494 33.1158C33.9081 33.0997 34.0236 32.9586 34.0074 32.8006C33.7136 29.9396 32.5871 27.2736 30.6025 25.4231Z" stroke="white" stroke-width="0.4375" stroke-miterlimit="10" stroke-linecap="round" stroke-linejoin="round"/>
<path d="M33.9469 34.1698C34.1056 34.1536 34.2474 34.2685 34.2637 34.4264C34.538 37.0849 34.4198 39.9564 34.0057 42.7342C33.9823 42.8913 33.8354 42.9997 33.6777 42.9764C33.5199 42.9531 33.411 42.8069 33.4344 42.6498C33.8427 39.9106 33.9577 37.0879 33.6892 34.4852C33.6729 34.3272 33.7883 34.186 33.9469 34.1698Z" stroke="white" stroke-width="0.4375" stroke-miterlimit="10" stroke-linecap="round" stroke-linejoin="round"/>
<path d="M23.8788 24.8429C19.4535 24.8429 15.8579 28.3578 15.8579 32.7033C15.8579 33.1675 15.8993 33.6223 15.9782 34.0646C16.0061 34.2209 16.156 34.3252 16.313 34.2974C16.47 34.2697 16.5747 34.1204 16.5469 33.9641C16.4738 33.5546 16.4355 33.1334 16.4355 32.7033C16.4355 28.6842 19.7635 25.418 23.8788 25.418C25.7385 25.418 27.4376 26.0853 28.7418 27.1879C28.8633 27.2907 29.0456 27.2759 29.1488 27.1548C29.252 27.0338 29.2372 26.8524 29.1156 26.7496C27.7103 25.5614 25.8796 24.8429 23.8788 24.8429Z" stroke="white" stroke-width="0.4375" stroke-miterlimit="10" stroke-linecap="round" stroke-linejoin="round"/>
<path d="M29.7627 27.8215C29.8778 27.7116 30.0606 27.7155 30.171 27.8301C31.4454 29.1532 31.8534 31.2327 32.1233 32.9779C32.4274 34.9436 32.4738 36.8614 32.4738 37.7506C32.4738 37.9094 32.3445 38.0381 32.185 38.0381C32.0255 38.0381 31.8962 37.9094 31.8962 37.7506C31.8962 36.8758 31.8503 34.9905 31.5525 33.0654C31.3019 31.4452 30.9406 29.4599 29.7541 28.228C29.6437 28.1134 29.6475 27.9314 29.7627 27.8215Z" stroke="white" stroke-width="0.4375" stroke-miterlimit="10" stroke-linecap="round" stroke-linejoin="round"/>
<path d="M32.4005 39.3971C32.4132 39.2388 32.2946 39.1003 32.1356 39.0876C31.9766 39.075 31.8374 39.1931 31.8247 39.3514C31.6829 41.1223 31.4976 42.8914 31.1216 44.5255C31.086 44.6802 31.1831 44.8345 31.3386 44.8699C31.494 44.9054 31.6489 44.8086 31.6846 44.6539C32.0705 42.9767 32.2583 41.1728 32.4005 39.3971Z" stroke="white" stroke-width="0.4375" stroke-miterlimit="10" stroke-linecap="round" stroke-linejoin="round"/>
<path d="M16.443 35.1228C16.5995 35.0921 16.7513 35.1935 16.7822 35.3493C17.3928 38.4363 16.9709 41.2405 15.354 43.6969C15.2665 43.8297 15.0875 43.8669 14.9541 43.7798C14.8207 43.6928 14.7835 43.5146 14.8709 43.3818C16.3923 41.0705 16.8017 38.4243 16.2155 35.4604C16.1847 35.3046 16.2865 35.1534 16.443 35.1228Z" stroke="white" stroke-width="0.4375" stroke-miterlimit="10" stroke-linecap="round" stroke-linejoin="round"/>
<path d="M23.8788 26.7136C21.0062 26.7136 18.1881 28.9273 17.9005 31.7095C17.7746 32.9276 17.9515 34.1274 18.1284 35.3277C18.283 36.3757 18.4375 37.4242 18.3906 38.4854C18.2832 40.9143 17.5674 42.9192 16.3374 44.5706C16.2424 44.6981 16.2692 44.8782 16.3973 44.9728C16.5255 45.0673 16.7063 45.0406 16.8013 44.9131C18.1059 43.1616 18.8556 41.0439 18.9676 38.5107C19.0143 37.4542 18.8593 36.4091 18.7043 35.3647C18.5272 34.1704 18.3501 32.9769 18.475 31.7684C18.7277 29.3243 21.2547 27.2886 23.8788 27.2886C25.1027 27.2886 28.2694 27.9484 29.2767 31.2152C29.9079 33.2624 30.0801 36.033 29.9272 38.7246C29.7743 41.4159 29.2988 43.99 28.6593 45.6406C28.6019 45.7887 28.676 45.9552 28.8248 46.0123C28.9736 46.0694 29.1407 45.9957 29.1981 45.8475C29.8672 44.1206 30.3491 41.4814 30.5039 38.7571C30.6586 36.0332 30.4885 33.1859 29.8288 31.0465C28.7107 27.4202 25.2056 26.7136 23.8788 26.7136Z" stroke="white" stroke-width="0.4375" stroke-miterlimit="10" stroke-linecap="round" stroke-linejoin="round"/>
<path d="M19.4346 43.6974C19.5682 43.7841 19.6059 43.9623 19.5187 44.0953C19.3397 44.3686 19.1821 44.6546 19.0246 44.9406C18.867 45.2266 18.7095 45.5127 18.5304 45.7861C18.4432 45.919 18.2643 45.9565 18.1307 45.8698C17.9971 45.7831 17.9595 45.6049 18.0466 45.4719C18.2257 45.1986 18.3832 44.9126 18.5408 44.6266C18.6983 44.3406 18.8559 44.0545 19.035 43.7811C19.1221 43.6481 19.301 43.6106 19.4346 43.6974Z" stroke="white" stroke-width="0.4375" stroke-miterlimit="10" stroke-linecap="round" stroke-linejoin="round"/>
<path d="M21.9074 29.698C22.04 29.6097 22.0755 29.4312 21.9869 29.2992C21.8982 29.1672 21.7188 29.1318 21.5863 29.22C20.4427 29.9815 19.7411 31.0286 19.7411 32.5626C19.7411 33.476 19.9037 34.2226 20.0704 34.9884C20.3199 36.1343 20.4891 37.2777 20.4586 38.4547C20.4217 39.884 20.1408 41.1901 19.6009 42.4342C19.5376 42.58 19.605 42.7492 19.7514 42.8122C19.8978 42.8752 20.0678 42.808 20.1311 42.6623C20.702 41.3468 20.9973 39.9679 21.036 38.4695C21.0676 37.2465 20.8937 36.0578 20.635 34.8668C20.4679 34.0977 20.3187 33.411 20.3187 32.5626C20.3187 31.2483 20.8995 30.3691 21.9074 29.698Z" stroke="white" stroke-width="0.4375" stroke-miterlimit="10" stroke-linecap="round" stroke-linejoin="round"/>
<path d="M23.0345 28.6878C24.2329 28.4446 25.5224 28.7452 26.4716 29.51C28.167 30.8762 28.3925 33.3676 28.5752 35.3865L28.5845 35.4894C28.8207 38.0918 28.5504 40.6196 28.0059 43.1581C27.9726 43.3134 27.8192 43.4124 27.6632 43.3793C27.5072 43.3461 27.4078 43.1934 27.4411 43.0381C27.9774 40.5376 28.2388 38.07 28.0093 35.5411C28.0017 35.4574 27.9942 35.3725 27.9865 35.2865L27.9864 35.2853C27.8241 33.4608 27.6208 31.1758 26.1082 29.9569C25.2967 29.303 24.1838 29.0414 23.1499 29.2512C22.9936 29.283 22.8411 29.1826 22.8092 29.027C22.7774 28.8714 22.8782 28.7195 23.0345 28.6878Z" stroke="white" stroke-width="0.4375" stroke-miterlimit="10" stroke-linecap="round" stroke-linejoin="round"/>
<path d="M27.5978 44.5887C27.6371 44.4349 27.5437 44.2784 27.3892 44.2392C27.2346 44.2 27.0774 44.293 27.0381 44.4469C26.8635 45.1296 26.5945 45.7458 26.2534 46.3132C26.1715 46.4494 26.216 46.6259 26.3529 46.7075C26.4897 46.789 26.667 46.7447 26.749 46.6085C27.1165 45.997 27.4084 45.3294 27.5978 44.5887Z" stroke="white" stroke-width="0.4375" stroke-miterlimit="10" stroke-linecap="round" stroke-linejoin="round"/>
<path d="M26.1856 40.4166C26.344 40.4352 26.4572 40.5782 26.4384 40.7359C26.1657 43.0304 25.55 45.0769 24.562 46.8518C24.4846 46.9907 24.3089 47.0409 24.1694 46.9639C24.0299 46.8869 23.9795 46.712 24.0568 46.5731C25.0023 44.8744 25.5993 42.9023 25.8649 40.6683C25.8836 40.5106 26.0272 40.3979 26.1856 40.4166Z" stroke="white" stroke-width="0.4375" stroke-miterlimit="10" stroke-linecap="round" stroke-linejoin="round"/>
<path d="M26.1261 32.4118C25.9259 31.3468 25.0077 30.5321 23.8931 30.5321C22.3837 30.5321 21.3247 32.0468 21.6979 33.456C22.3293 35.9435 22.433 38.3409 22.0055 40.6499L22.0052 40.6516C21.6343 42.7247 20.9219 44.5897 19.9503 46.1701C19.867 46.3055 19.9098 46.4825 20.0458 46.5654C20.1818 46.6483 20.3596 46.6057 20.4429 46.4703C21.4543 44.8253 22.1909 42.8923 22.5737 40.7533C23.0175 38.3552 22.9075 35.8737 22.2575 33.3136L22.2567 33.3106C21.9768 32.2565 22.757 31.1071 23.8931 31.1071C24.7129 31.1071 25.4052 31.7076 25.558 32.5156C25.9784 34.943 26.1973 37.194 26.0414 39.132C26.0287 39.2903 26.1472 39.4289 26.3062 39.4415C26.4652 39.4542 26.6044 39.3362 26.6171 39.1779C26.7787 37.1691 26.5506 34.8627 26.1268 32.4158C26.1266 32.4145 26.1263 32.4132 26.1261 32.4118Z" stroke="white" stroke-width="0.4375" stroke-miterlimit="10" stroke-linecap="round" stroke-linejoin="round"/>
<path d="M23.0314 44.8638C23.1732 44.9363 23.2291 45.1096 23.1562 45.2509L22.391 46.7334C22.3181 46.8746 22.144 46.9303 22.0022 46.8577C21.8603 46.7851 21.8044 46.6118 21.8773 46.4706L22.6425 44.9881C22.7154 44.8468 22.8895 44.7912 23.0314 44.8638Z" stroke="white" stroke-width="0.4375" stroke-miterlimit="10" stroke-linecap="round" stroke-linejoin="round"/>
<path d="M24.1079 32.689C24.0714 32.5345 23.916 32.4386 23.7607 32.4749C23.6054 32.5112 23.5091 32.666 23.5456 32.8205C24.5195 36.9476 24.3857 40.5716 23.1995 43.6588C23.1425 43.8071 23.2171 43.9733 23.366 44.03C23.515 44.0868 23.682 44.0125 23.7389 43.8642C24.9758 40.6453 25.1015 36.8999 24.1079 32.689Z" stroke="white" stroke-width="0.4375" stroke-miterlimit="10" stroke-linecap="round" stroke-linejoin="round"/>
</svg>
